<svg xmlns="http://www.w3.org/2000/svg" xmlns:xlink="http://www.w3.org/1999/xlink" width="500" zoomAndPan="magnify" viewBox="0 0 375 374.999991" height="500" preserveAspectRatio="xMidYMid meet" version="1.0"><rect x="-37.5" width="450" fill="#ffffff" y="-37.499999" height="449.999989" fill-opacity="1"/><rect x="-37.5" width="450" fill="#ffffff" y="-37.499999" height="449.999989" fill-opacity="1"/><path fill="#313c42" d="M 222.484375 238.394531 L 213.308594 234.863281 L 217.074219 244.050781 Z M 222.484375 238.394531 " fill-opacity="1" fill-rule="nonzero"/><path fill="#313c42" d="M 194.019531 251.117188 C 192.605469 251.351562 191.195312 252.292969 189.546875 253.941406 L 186.726562 256.769531 L 194.253906 264.304688 L 197.546875 261.007812 C 199.195312 259.359375 199.898438 257.945312 199.898438 256.769531 C 199.898438 255.589844 199.195312 254.175781 197.78125 253 C 196.605469 251.351562 195.195312 250.878906 194.019531 251.117188 Z M 194.019531 251.117188 " fill-opacity="1" fill-rule="nonzero"/><path fill="#313c42" d="M 337.292969 214.132812 L 173.082031 49.71875 C 167.199219 43.828125 157.554688 43.828125 151.671875 49.71875 L 49.804688 151.949219 C 43.921875 157.835938 43.921875 167.492188 49.804688 173.382812 L 214.015625 337.800781 C 219.898438 343.6875 229.542969 343.6875 235.425781 337.800781 L 337.527344 235.570312 C 343.171875 229.445312 343.171875 220.023438 337.292969 214.132812 Z M 105.324219 195.289062 C 103.679688 195.289062 102.265625 194.816406 101.089844 193.640625 C 98.738281 191.285156 98.738281 187.515625 101.089844 185.160156 L 184.84375 101.304688 C 187.195312 98.949219 190.960938 98.949219 193.3125 101.304688 C 195.664062 103.660156 195.664062 107.425781 193.3125 109.78125 L 109.5625 193.640625 C 108.382812 194.816406 106.972656 195.289062 105.324219 195.289062 Z M 206.722656 256.296875 C 206.488281 259.125 204.605469 262.1875 201.3125 265.484375 L 198.488281 268.3125 L 204.605469 274.433594 L 199.664062 279.382812 L 177.550781 257.238281 L 185.3125 249.464844 C 188.609375 246.167969 191.902344 244.285156 194.722656 244.050781 C 197.546875 243.8125 200.371094 244.992188 203.195312 247.816406 C 206.015625 250.644531 207.191406 253.472656 206.722656 256.296875 Z M 235.660156 243.578125 L 228.835938 240.75 L 219.425781 250.171875 L 222.25 257.003906 L 217.074219 262.1875 L 204.605469 230.621094 L 209.3125 225.910156 L 240.835938 238.394531 Z M 251.421875 228.265625 C 247.894531 231.800781 243.421875 233.683594 238.011719 233.921875 L 237.304688 227.324219 C 241.777344 227.089844 245.070312 225.910156 246.953125 223.792969 C 247.894531 222.847656 248.363281 221.90625 248.597656 220.964844 C 248.835938 220.023438 248.363281 219.316406 247.894531 218.609375 C 247.1875 217.902344 246.480469 217.667969 245.539062 217.902344 C 244.597656 218.136719 243.1875 218.84375 241.070312 220.023438 C 237.777344 221.90625 235.1875 223.085938 233.070312 223.320312 C 230.953125 223.554688 228.835938 222.613281 226.71875 220.492188 C 224.601562 218.375 223.660156 216.019531 224.132812 213.425781 C 224.601562 210.835938 225.777344 208.246094 228.132812 206.125 C 229.542969 204.710938 231.425781 203.535156 233.308594 202.355469 C 235.1875 201.414062 237.304688 200.707031 239.421875 200.707031 L 240.601562 206.832031 C 237.304688 207.300781 234.484375 208.480469 232.367188 210.601562 C 231.660156 211.308594 231.191406 212.25 230.953125 213.191406 C 230.953125 214.132812 231.191406 214.839844 231.894531 215.546875 C 232.601562 216.253906 233.308594 216.488281 234.25 216.253906 C 235.1875 216.019531 237.070312 215.074219 239.660156 213.664062 C 242.246094 212.011719 244.597656 211.308594 246.953125 211.070312 C 249.070312 210.835938 251.1875 211.777344 253.304688 213.898438 C 255.1875 215.78125 256.128906 218.136719 255.890625 220.964844 C 255.1875 223.320312 253.773438 225.910156 251.421875 228.265625 Z M 271.417969 208.246094 C 267.890625 211.777344 263.421875 213.664062 258.007812 213.898438 L 257.304688 207.300781 C 261.773438 207.066406 265.066406 205.890625 266.949219 203.769531 C 267.890625 202.828125 268.359375 201.882812 268.597656 200.941406 C 268.832031 200 268.359375 199.292969 267.890625 198.585938 C 267.183594 197.878906 266.480469 197.644531 265.539062 197.878906 C 264.597656 198.117188 263.183594 198.824219 261.066406 200 C 257.773438 201.882812 255.1875 203.0625 253.070312 203.296875 C 250.953125 203.535156 248.835938 202.589844 246.71875 200.472656 C 244.597656 198.351562 243.660156 195.996094 244.128906 193.40625 C 244.597656 190.8125 245.777344 188.222656 248.128906 186.101562 C 249.539062 184.6875 251.421875 183.511719 253.304688 182.332031 C 255.1875 181.390625 257.304688 180.683594 259.421875 180.683594 L 260.597656 186.808594 C 257.304688 187.28125 254.480469 188.457031 252.363281 190.578125 C 251.65625 191.285156 251.1875 192.226562 250.953125 193.167969 C 250.953125 194.113281 251.1875 194.816406 251.890625 195.523438 C 252.597656 196.230469 253.304688 196.46875 254.246094 196.230469 C 255.1875 195.996094 257.066406 195.054688 259.65625 193.640625 C 262.242188 191.992188 264.597656 191.285156 266.949219 191.050781 C 269.066406 190.8125 271.183594 191.757812 273.300781 193.875 C 275.183594 195.761719 276.125 198.117188 275.890625 200.941406 C 275.183594 203.0625 274.007812 205.652344 271.417969 208.246094 Z M 271.417969 208.246094 " fill-opacity="1" fill-rule="nonzero"/></svg>